<mxfile modified="2023-05-16T07:35:31.684Z" host="app.diagrams.net" agent="Mozilla/5.0 (Windows NT 10.0; Win64; x64) AppleWebKit/537.36 (KHTML, like Gecko) Chrome/113.0.0.0 Safari/537.36" etag="f31isyH4J0cW0IE8-ZHr" version="21.3.2" type="github">
  <diagram id="l8hXMBHkgcEJcSW0mbfh" name="Page-1">
    <mxGraphModel dx="1196" dy="1258" grid="1" gridSize="10" guides="1" tooltips="1" connect="1" arrows="1" fold="1" page="1" pageScale="1" pageWidth="1169" pageHeight="827" math="0" shadow="0">
      <root>
        <mxCell id="0" />
        <mxCell id="1" parent="0" />
        <mxCell id="ABNjyrSuYEHNxfV3t2KI-1" value="&lt;h1 style=&quot;font-size: 31px;&quot;&gt;A&lt;/h1&gt;" style="ellipse;whiteSpace=wrap;html=1;aspect=fixed;fontStyle=1;horizontal=1;fontSize=31;fillColor=#fff2cc;strokeColor=#000000;strokeWidth=4;" vertex="1" parent="1">
          <mxGeometry x="20" y="870" width="90" height="90" as="geometry" />
        </mxCell>
        <mxCell id="ABNjyrSuYEHNxfV3t2KI-19" value="&lt;h1 style=&quot;font-size: 31px;&quot;&gt;B&lt;/h1&gt;" style="ellipse;whiteSpace=wrap;html=1;aspect=fixed;fontStyle=1;horizontal=1;fontSize=31;fillColor=#fff2cc;strokeColor=#000000;strokeWidth=4;" vertex="1" parent="1">
          <mxGeometry x="120" y="780" width="90" height="90" as="geometry" />
        </mxCell>
        <mxCell id="ABNjyrSuYEHNxfV3t2KI-20" value="&lt;h1 style=&quot;font-size: 31px;&quot;&gt;H&lt;/h1&gt;" style="ellipse;whiteSpace=wrap;html=1;aspect=fixed;fontStyle=1;horizontal=1;fontSize=31;fillColor=#fff2cc;strokeColor=#000000;strokeWidth=4;" vertex="1" parent="1">
          <mxGeometry x="190" y="910" width="90" height="90" as="geometry" />
        </mxCell>
        <mxCell id="ABNjyrSuYEHNxfV3t2KI-21" value="&lt;h1 style=&quot;font-size: 31px;&quot;&gt;S&lt;/h1&gt;" style="ellipse;whiteSpace=wrap;html=1;aspect=fixed;fontStyle=1;horizontal=1;fontSize=31;fillColor=#fff2cc;strokeColor=#000000;strokeWidth=4;" vertex="1" parent="1">
          <mxGeometry x="250" y="700" width="90" height="90" as="geometry" />
        </mxCell>
        <mxCell id="ABNjyrSuYEHNxfV3t2KI-22" value="&lt;h1 style=&quot;font-size: 31px;&quot;&gt;C&lt;/h1&gt;" style="ellipse;whiteSpace=wrap;html=1;aspect=fixed;fontStyle=1;horizontal=1;fontSize=31;fillColor=#fff2cc;strokeColor=#000000;strokeWidth=4;" vertex="1" parent="1">
          <mxGeometry x="310" y="820" width="90" height="90" as="geometry" />
        </mxCell>
        <mxCell id="ABNjyrSuYEHNxfV3t2KI-23" value="I" style="ellipse;whiteSpace=wrap;html=1;aspect=fixed;fontStyle=1;horizontal=1;fontSize=31;fillColor=#fff2cc;strokeColor=#000000;strokeWidth=4;" vertex="1" parent="1">
          <mxGeometry x="330" y="980" width="90" height="90" as="geometry" />
        </mxCell>
        <mxCell id="ABNjyrSuYEHNxfV3t2KI-24" value="E" style="ellipse;whiteSpace=wrap;html=1;aspect=fixed;fontStyle=1;horizontal=1;fontSize=31;fillColor=#fff2cc;strokeColor=#000000;strokeWidth=4;" vertex="1" parent="1">
          <mxGeometry x="380" y="710" width="90" height="90" as="geometry" />
        </mxCell>
        <mxCell id="ABNjyrSuYEHNxfV3t2KI-25" value="G" style="ellipse;whiteSpace=wrap;html=1;aspect=fixed;fontStyle=1;horizontal=1;fontSize=31;fillColor=#fff2cc;strokeColor=#000000;strokeWidth=4;" vertex="1" parent="1">
          <mxGeometry x="440" y="870" width="90" height="90" as="geometry" />
        </mxCell>
        <mxCell id="ABNjyrSuYEHNxfV3t2KI-26" value="F" style="ellipse;whiteSpace=wrap;html=1;aspect=fixed;fontStyle=1;horizontal=1;fontSize=31;fillColor=#fff2cc;strokeColor=#000000;strokeWidth=4;" vertex="1" parent="1">
          <mxGeometry x="520" y="760" width="90" height="90" as="geometry" />
        </mxCell>
        <mxCell id="ABNjyrSuYEHNxfV3t2KI-27" value="K" style="ellipse;whiteSpace=wrap;html=1;aspect=fixed;fontStyle=1;horizontal=1;fontSize=31;fillColor=#fff2cc;strokeColor=#000000;strokeWidth=4;" vertex="1" parent="1">
          <mxGeometry x="560" y="940" width="90" height="90" as="geometry" />
        </mxCell>
        <mxCell id="ABNjyrSuYEHNxfV3t2KI-28" value="J" style="ellipse;whiteSpace=wrap;html=1;aspect=fixed;fontStyle=1;horizontal=1;fontSize=31;fillColor=#fff2cc;strokeColor=#000000;strokeWidth=4;" vertex="1" parent="1">
          <mxGeometry x="630" y="827" width="90" height="90" as="geometry" />
        </mxCell>
        <mxCell id="ABNjyrSuYEHNxfV3t2KI-29" value="M" style="ellipse;whiteSpace=wrap;html=1;aspect=fixed;fontStyle=1;horizontal=1;fontSize=31;fillColor=#fff2cc;strokeColor=#000000;strokeWidth=4;" vertex="1" parent="1">
          <mxGeometry x="760" y="800" width="90" height="90" as="geometry" />
        </mxCell>
        <mxCell id="ABNjyrSuYEHNxfV3t2KI-30" value="L" style="ellipse;whiteSpace=wrap;html=1;aspect=fixed;fontStyle=1;horizontal=1;fontSize=31;fillColor=#fff2cc;strokeColor=#000000;strokeWidth=4;" vertex="1" parent="1">
          <mxGeometry x="890" y="800" width="90" height="90" as="geometry" />
        </mxCell>
        <mxCell id="ABNjyrSuYEHNxfV3t2KI-31" value="D" style="ellipse;whiteSpace=wrap;html=1;aspect=fixed;fontStyle=1;horizontal=1;fontSize=31;fillColor=#fff2cc;strokeColor=#000000;strokeWidth=4;" vertex="1" parent="1">
          <mxGeometry x="730" y="917" width="90" height="90" as="geometry" />
        </mxCell>
        <mxCell id="ABNjyrSuYEHNxfV3t2KI-32" value="N" style="ellipse;whiteSpace=wrap;html=1;aspect=fixed;fontStyle=1;horizontal=1;fontSize=31;fillColor=#fff2cc;strokeColor=#000000;strokeWidth=4;" vertex="1" parent="1">
          <mxGeometry x="840" y="990" width="90" height="90" as="geometry" />
        </mxCell>
        <mxCell id="ABNjyrSuYEHNxfV3t2KI-34" value="" style="endArrow=none;html=1;rounded=0;exitX=1;exitY=0;exitDx=0;exitDy=0;fontStyle=1;horizontal=1;fontSize=31;fillColor=#fff2cc;strokeColor=#000000;strokeWidth=4;" edge="1" parent="1" source="ABNjyrSuYEHNxfV3t2KI-1" target="ABNjyrSuYEHNxfV3t2KI-19">
          <mxGeometry width="50" height="50" relative="1" as="geometry">
            <mxPoint x="330" y="950" as="sourcePoint" />
            <mxPoint x="380" y="900" as="targetPoint" />
          </mxGeometry>
        </mxCell>
        <mxCell id="ABNjyrSuYEHNxfV3t2KI-36" value="" style="endArrow=none;html=1;rounded=0;exitX=0.937;exitY=0.763;exitDx=0;exitDy=0;exitPerimeter=0;entryX=-0.013;entryY=0.44;entryDx=0;entryDy=0;entryPerimeter=0;fontStyle=1;horizontal=1;fontSize=31;fillColor=#fff2cc;strokeColor=#000000;strokeWidth=4;" edge="1" parent="1" source="ABNjyrSuYEHNxfV3t2KI-1" target="ABNjyrSuYEHNxfV3t2KI-20">
          <mxGeometry width="50" height="50" relative="1" as="geometry">
            <mxPoint x="107" y="893" as="sourcePoint" />
            <mxPoint x="141" y="864" as="targetPoint" />
          </mxGeometry>
        </mxCell>
        <mxCell id="ABNjyrSuYEHNxfV3t2KI-37" value="" style="endArrow=none;html=1;rounded=0;exitX=1;exitY=1;exitDx=0;exitDy=0;entryX=0.296;entryY=0.026;entryDx=0;entryDy=0;entryPerimeter=0;fontStyle=1;horizontal=1;fontSize=31;fillColor=#fff2cc;strokeColor=#000000;strokeWidth=4;" edge="1" parent="1" source="ABNjyrSuYEHNxfV3t2KI-19" target="ABNjyrSuYEHNxfV3t2KI-20">
          <mxGeometry width="50" height="50" relative="1" as="geometry">
            <mxPoint x="780" y="980" as="sourcePoint" />
            <mxPoint x="830" y="930" as="targetPoint" />
          </mxGeometry>
        </mxCell>
        <mxCell id="ABNjyrSuYEHNxfV3t2KI-38" value="" style="endArrow=none;html=1;rounded=0;exitX=1;exitY=0;exitDx=0;exitDy=0;fontStyle=1;horizontal=1;fontSize=31;fillColor=#fff2cc;strokeColor=#000000;strokeWidth=4;" edge="1" parent="1" source="ABNjyrSuYEHNxfV3t2KI-19" target="ABNjyrSuYEHNxfV3t2KI-21">
          <mxGeometry width="50" height="50" relative="1" as="geometry">
            <mxPoint x="207" y="867" as="sourcePoint" />
            <mxPoint x="227" y="922" as="targetPoint" />
          </mxGeometry>
        </mxCell>
        <mxCell id="ABNjyrSuYEHNxfV3t2KI-39" value="" style="endArrow=none;html=1;rounded=0;exitX=0.709;exitY=0.972;exitDx=0;exitDy=0;entryX=0.243;entryY=0.073;entryDx=0;entryDy=0;entryPerimeter=0;exitPerimeter=0;fontStyle=1;horizontal=1;fontSize=31;fillColor=#fff2cc;strokeColor=#000000;strokeWidth=4;" edge="1" parent="1" source="ABNjyrSuYEHNxfV3t2KI-21" target="ABNjyrSuYEHNxfV3t2KI-22">
          <mxGeometry width="50" height="50" relative="1" as="geometry">
            <mxPoint x="217" y="877" as="sourcePoint" />
            <mxPoint x="237" y="932" as="targetPoint" />
          </mxGeometry>
        </mxCell>
        <mxCell id="ABNjyrSuYEHNxfV3t2KI-40" value="" style="endArrow=none;html=1;rounded=0;exitX=0;exitY=1;exitDx=0;exitDy=0;entryX=0.897;entryY=0.211;entryDx=0;entryDy=0;entryPerimeter=0;fontStyle=1;horizontal=1;fontSize=31;fillColor=#fff2cc;strokeColor=#000000;strokeWidth=4;" edge="1" parent="1" source="ABNjyrSuYEHNxfV3t2KI-22" target="ABNjyrSuYEHNxfV3t2KI-20">
          <mxGeometry width="50" height="50" relative="1" as="geometry">
            <mxPoint x="227" y="887" as="sourcePoint" />
            <mxPoint x="247" y="942" as="targetPoint" />
          </mxGeometry>
        </mxCell>
        <mxCell id="ABNjyrSuYEHNxfV3t2KI-41" value="" style="endArrow=none;html=1;rounded=0;exitX=0.5;exitY=1;exitDx=0;exitDy=0;entryX=0.388;entryY=-0.013;entryDx=0;entryDy=0;entryPerimeter=0;fontStyle=1;horizontal=1;fontSize=31;fillColor=#fff2cc;strokeColor=#000000;strokeWidth=4;" edge="1" parent="1" source="ABNjyrSuYEHNxfV3t2KI-22" target="ABNjyrSuYEHNxfV3t2KI-23">
          <mxGeometry width="50" height="50" relative="1" as="geometry">
            <mxPoint x="237" y="897" as="sourcePoint" />
            <mxPoint x="257" y="952" as="targetPoint" />
          </mxGeometry>
        </mxCell>
        <mxCell id="ABNjyrSuYEHNxfV3t2KI-42" value="" style="endArrow=none;html=1;rounded=0;entryX=1;entryY=1;entryDx=0;entryDy=0;fontStyle=1;horizontal=1;fontSize=31;fillColor=#fff2cc;strokeColor=#000000;strokeWidth=4;" edge="1" parent="1" target="ABNjyrSuYEHNxfV3t2KI-20">
          <mxGeometry width="50" height="50" relative="1" as="geometry">
            <mxPoint x="330" y="1010" as="sourcePoint" />
            <mxPoint x="267" y="962" as="targetPoint" />
          </mxGeometry>
        </mxCell>
        <mxCell id="ABNjyrSuYEHNxfV3t2KI-43" value="" style="endArrow=none;html=1;rounded=0;exitX=1;exitY=0;exitDx=0;exitDy=0;entryX=0;entryY=1;entryDx=0;entryDy=0;fontStyle=1;horizontal=1;fontSize=31;fillColor=#fff2cc;strokeColor=#000000;strokeWidth=4;" edge="1" parent="1" source="ABNjyrSuYEHNxfV3t2KI-23" target="ABNjyrSuYEHNxfV3t2KI-25">
          <mxGeometry width="50" height="50" relative="1" as="geometry">
            <mxPoint x="257" y="917" as="sourcePoint" />
            <mxPoint x="277" y="972" as="targetPoint" />
          </mxGeometry>
        </mxCell>
        <mxCell id="ABNjyrSuYEHNxfV3t2KI-44" value="" style="endArrow=none;html=1;rounded=0;exitX=0.014;exitY=0.3;exitDx=0;exitDy=0;entryX=0.973;entryY=0.691;entryDx=0;entryDy=0;exitPerimeter=0;entryPerimeter=0;fontStyle=1;horizontal=1;fontSize=31;fillColor=#fff2cc;strokeColor=#000000;strokeWidth=4;" edge="1" parent="1" source="ABNjyrSuYEHNxfV3t2KI-25" target="ABNjyrSuYEHNxfV3t2KI-22">
          <mxGeometry width="50" height="50" relative="1" as="geometry">
            <mxPoint x="267" y="927" as="sourcePoint" />
            <mxPoint x="287" y="982" as="targetPoint" />
          </mxGeometry>
        </mxCell>
        <mxCell id="ABNjyrSuYEHNxfV3t2KI-45" value="" style="endArrow=none;html=1;rounded=0;exitX=1;exitY=0.5;exitDx=0;exitDy=0;entryX=-0.003;entryY=0.423;entryDx=0;entryDy=0;entryPerimeter=0;fontStyle=1;horizontal=1;fontSize=31;fillColor=#fff2cc;strokeColor=#000000;strokeWidth=4;" edge="1" parent="1" source="ABNjyrSuYEHNxfV3t2KI-21" target="ABNjyrSuYEHNxfV3t2KI-24">
          <mxGeometry width="50" height="50" relative="1" as="geometry">
            <mxPoint x="277" y="937" as="sourcePoint" />
            <mxPoint x="297" y="992" as="targetPoint" />
          </mxGeometry>
        </mxCell>
        <mxCell id="ABNjyrSuYEHNxfV3t2KI-46" value="" style="endArrow=none;html=1;rounded=0;exitX=1;exitY=0.5;exitDx=0;exitDy=0;entryX=0.041;entryY=0.264;entryDx=0;entryDy=0;entryPerimeter=0;fontStyle=1;horizontal=1;fontSize=31;fillColor=#fff2cc;strokeColor=#000000;strokeWidth=4;" edge="1" parent="1" source="ABNjyrSuYEHNxfV3t2KI-24" target="ABNjyrSuYEHNxfV3t2KI-26">
          <mxGeometry width="50" height="50" relative="1" as="geometry">
            <mxPoint x="287" y="947" as="sourcePoint" />
            <mxPoint x="307" y="1002" as="targetPoint" />
          </mxGeometry>
        </mxCell>
        <mxCell id="ABNjyrSuYEHNxfV3t2KI-47" value="" style="endArrow=none;html=1;rounded=0;exitX=0;exitY=1;exitDx=0;exitDy=0;entryX=0.726;entryY=0.035;entryDx=0;entryDy=0;entryPerimeter=0;fontStyle=1;horizontal=1;fontSize=31;fillColor=#fff2cc;strokeColor=#000000;strokeWidth=4;" edge="1" parent="1" source="ABNjyrSuYEHNxfV3t2KI-24" target="ABNjyrSuYEHNxfV3t2KI-22">
          <mxGeometry width="50" height="50" relative="1" as="geometry">
            <mxPoint x="297" y="957" as="sourcePoint" />
            <mxPoint x="317" y="1012" as="targetPoint" />
          </mxGeometry>
        </mxCell>
        <mxCell id="ABNjyrSuYEHNxfV3t2KI-48" value="" style="endArrow=none;html=1;rounded=0;exitX=0.239;exitY=0.907;exitDx=0;exitDy=0;entryX=1;entryY=0;entryDx=0;entryDy=0;exitPerimeter=0;fontStyle=1;horizontal=1;fontSize=31;fillColor=#fff2cc;strokeColor=#000000;strokeWidth=4;" edge="1" parent="1" source="ABNjyrSuYEHNxfV3t2KI-26" target="ABNjyrSuYEHNxfV3t2KI-25">
          <mxGeometry width="50" height="50" relative="1" as="geometry">
            <mxPoint x="307" y="967" as="sourcePoint" />
            <mxPoint x="327" y="1022" as="targetPoint" />
          </mxGeometry>
        </mxCell>
        <mxCell id="ABNjyrSuYEHNxfV3t2KI-49" value="" style="endArrow=none;html=1;rounded=0;exitX=0;exitY=0.333;exitDx=0;exitDy=0;entryX=0.944;entryY=0.779;entryDx=0;entryDy=0;entryPerimeter=0;exitPerimeter=0;fontStyle=1;horizontal=1;fontSize=31;fillColor=#fff2cc;strokeColor=#000000;strokeWidth=4;" edge="1" parent="1" source="ABNjyrSuYEHNxfV3t2KI-27" target="ABNjyrSuYEHNxfV3t2KI-25">
          <mxGeometry width="50" height="50" relative="1" as="geometry">
            <mxPoint x="317" y="977" as="sourcePoint" />
            <mxPoint x="337" y="1032" as="targetPoint" />
          </mxGeometry>
        </mxCell>
        <mxCell id="ABNjyrSuYEHNxfV3t2KI-50" value="" style="endArrow=none;html=1;rounded=0;exitX=0;exitY=0.5;exitDx=0;exitDy=0;entryX=1;entryY=0.5;entryDx=0;entryDy=0;fontStyle=1;horizontal=1;fontSize=31;fillColor=#fff2cc;strokeColor=#000000;strokeWidth=4;" edge="1" parent="1" source="ABNjyrSuYEHNxfV3t2KI-31" target="ABNjyrSuYEHNxfV3t2KI-27">
          <mxGeometry width="50" height="50" relative="1" as="geometry">
            <mxPoint x="327" y="987" as="sourcePoint" />
            <mxPoint x="347" y="1042" as="targetPoint" />
          </mxGeometry>
        </mxCell>
        <mxCell id="ABNjyrSuYEHNxfV3t2KI-51" value="" style="endArrow=none;html=1;rounded=0;exitX=0.971;exitY=0.702;exitDx=0;exitDy=0;entryX=0.077;entryY=0.258;entryDx=0;entryDy=0;exitPerimeter=0;entryPerimeter=0;fontStyle=1;horizontal=1;fontSize=31;fillColor=#fff2cc;strokeColor=#000000;strokeWidth=4;" edge="1" parent="1" source="ABNjyrSuYEHNxfV3t2KI-26" target="ABNjyrSuYEHNxfV3t2KI-28">
          <mxGeometry width="50" height="50" relative="1" as="geometry">
            <mxPoint x="337" y="997" as="sourcePoint" />
            <mxPoint x="357" y="1052" as="targetPoint" />
          </mxGeometry>
        </mxCell>
        <mxCell id="ABNjyrSuYEHNxfV3t2KI-52" value="" style="endArrow=none;html=1;rounded=0;exitX=0;exitY=0.5;exitDx=0;exitDy=0;entryX=0.993;entryY=0.436;entryDx=0;entryDy=0;entryPerimeter=0;fontStyle=1;horizontal=1;fontSize=31;fillColor=#fff2cc;strokeColor=#000000;strokeWidth=4;" edge="1" parent="1" source="ABNjyrSuYEHNxfV3t2KI-29" target="ABNjyrSuYEHNxfV3t2KI-28">
          <mxGeometry width="50" height="50" relative="1" as="geometry">
            <mxPoint x="710" y="745" as="sourcePoint" />
            <mxPoint x="730" y="800" as="targetPoint" />
          </mxGeometry>
        </mxCell>
        <mxCell id="ABNjyrSuYEHNxfV3t2KI-53" value="" style="endArrow=none;html=1;rounded=0;exitX=1;exitY=1;exitDx=0;exitDy=0;entryX=0;entryY=0;entryDx=0;entryDy=0;fontStyle=1;horizontal=1;fontSize=31;fillColor=#fff2cc;strokeColor=#000000;strokeWidth=4;" edge="1" parent="1" source="ABNjyrSuYEHNxfV3t2KI-28" target="ABNjyrSuYEHNxfV3t2KI-31">
          <mxGeometry width="50" height="50" relative="1" as="geometry">
            <mxPoint x="720" y="755" as="sourcePoint" />
            <mxPoint x="740" y="810" as="targetPoint" />
          </mxGeometry>
        </mxCell>
        <mxCell id="ABNjyrSuYEHNxfV3t2KI-54" value="" style="endArrow=none;html=1;rounded=0;exitX=0;exitY=0.5;exitDx=0;exitDy=0;entryX=1;entryY=0.5;entryDx=0;entryDy=0;fontStyle=1;horizontal=1;fontSize=31;fillColor=#fff2cc;strokeColor=#000000;strokeWidth=4;" edge="1" parent="1" source="ABNjyrSuYEHNxfV3t2KI-30" target="ABNjyrSuYEHNxfV3t2KI-29">
          <mxGeometry width="50" height="50" relative="1" as="geometry">
            <mxPoint x="730" y="765" as="sourcePoint" />
            <mxPoint x="750" y="820" as="targetPoint" />
          </mxGeometry>
        </mxCell>
        <mxCell id="ABNjyrSuYEHNxfV3t2KI-55" value="" style="endArrow=none;html=1;rounded=0;exitX=0;exitY=0;exitDx=0;exitDy=0;entryX=0.983;entryY=0.694;entryDx=0;entryDy=0;entryPerimeter=0;fontStyle=1;horizontal=1;fontSize=31;fillColor=#fff2cc;strokeColor=#000000;strokeWidth=4;" edge="1" parent="1" source="ABNjyrSuYEHNxfV3t2KI-32" target="ABNjyrSuYEHNxfV3t2KI-31">
          <mxGeometry width="50" height="50" relative="1" as="geometry">
            <mxPoint x="740" y="775" as="sourcePoint" />
            <mxPoint x="760" y="830" as="targetPoint" />
          </mxGeometry>
        </mxCell>
      </root>
    </mxGraphModel>
  </diagram>
</mxfile>
